<?xml version = "1.0" encoding = "UTF-8" ?>
<svg width="1541" height="1541" viewBox="0 0 1541 1541" fill="none" xmlns="http://www.w3.org/2000/svg">
	<path opacity="0.5" d="M931.652 1523.43C879.477 1534.57 826.287 1540.29 772.932 1540.5C350.892 1541.76 4.44671 1199.73 0.543814 777.812L0.543806 777.811C-0.561682 674.32 19.2669 571.674 58.8382 476.04C98.4095 380.406 156.907 293.759 230.815 221.304L231.183 220.943L230.811 220.586L1.2877 0.500658L770.576 0.500658L770.577 0.500657C874.371 0.36484 977.115 21.2729 1072.6 61.9613C1167.73 102.497 1253.68 161.825 1325.31 236.385H1325.14L1325.95 237.231C1439.69 355.761 1512.57 507.538 1533.95 670.411C1555.33 833.284 1524.09 998.727 1444.79 1142.59C1409 1207.35 1356.59 1261.39 1292.97 1299.17C1229.36 1336.95 1156.82 1357.1 1082.83 1357.55H1080.2C944.171 1357.75 812.351 1310.53 707.413 1224.04C798.889 1236.71 892.075 1221.41 974.713 1180.13C1057.88 1138.58 1126.41 1072.69 1171.2 991.219C1215.98 909.753 1234.89 816.579 1225.39 724.101C1215.9 631.624 1178.47 544.231 1118.07 473.558C1057.68 402.885 977.183 352.284 887.312 328.493C797.441 304.702 702.455 308.849 614.999 340.381C527.544 371.914 451.768 429.337 397.761 505.004C343.754 580.672 314.077 670.995 312.683 763.947V763.955V763.967V763.98V763.993V764.006V764.019V764.031V764.044V764.057V764.07V764.082V764.095V764.108V764.121V764.134V764.146V764.159V764.172V764.185V764.198V764.21V764.223V764.236V764.249V764.261V764.274V764.287V764.3V764.312V764.325V764.338V764.351V764.364V764.376V764.389V764.402V764.415V764.428V764.44V764.453V764.466V764.479V764.491V764.504V764.517V764.53V764.543V764.555V764.568V764.581V764.594V764.607V764.619V764.632V764.645V764.658V764.67V764.683V764.696V764.709V764.721V764.734V764.747V764.76V764.773V764.785V764.798V764.811V764.824V764.837V764.849V764.862V764.875V764.888V764.9V764.913V764.926V764.939V764.952V764.964V764.977V764.99V765.003V765.015V765.028V765.041V765.054V765.067V765.079V765.092V765.105V765.118V765.13V765.143V765.156V765.169V765.182V765.194V765.207V765.22V765.233V765.246V765.258V765.271V765.284V765.297V765.309V765.322V765.335V765.348V765.361V765.373V765.386V765.399V765.412V765.424V765.437V765.45V765.463V765.476V765.488V765.501V765.514V765.527V765.539V765.552V765.565V765.578V765.591V765.603V765.616V765.629V765.642V765.655V765.667V765.68V765.693V765.706V765.718V765.731V765.744V765.757V765.77V765.782V765.795V765.808V765.821V765.833V765.846V765.859V765.872V765.885V765.897V765.91V765.923V765.936V765.948V765.961V765.974V765.987V766V766.012V766.025V766.038V766.051V766.063V766.076V766.089V766.102V766.115V766.127V766.14V766.153V766.166V766.179V766.191V766.204V766.217V766.23V766.242V766.255V766.268V766.281V766.294V766.306V766.319V766.332V766.345V766.357V766.37V766.383V766.396V766.409V766.421V766.434V766.447V766.46V766.472V766.485V766.498V766.511V766.524V766.536V766.549V766.562V766.575V766.588V766.6V766.613V766.626V766.639V766.651V766.664V766.677V766.69V766.703V766.715V766.728V766.741V766.754V766.766V766.779V766.792V766.805V766.818V766.83V766.843V766.856V766.869V766.881V766.894V766.907V766.92V766.933V766.945V766.958V766.971V766.984V766.997V767.009V767.022V767.035V767.048V767.06V767.073V767.086V767.099V767.112V767.124V767.137V767.15V767.163V767.175V767.188V767.201V767.214V767.227V767.239V767.252V767.265V767.278V767.29V767.303V767.316V767.329V767.342V767.354V767.367V767.38V767.393V767.406V767.418V767.431V767.444V767.457V767.469V767.482V767.495V767.508V767.521V767.533V767.546V767.559V767.572V767.584V767.597V767.61V767.623V767.636V767.648V767.661V767.674V767.687V767.699V767.712V767.725V767.738V767.751V767.763V767.776V767.789V767.802V767.815V767.827V767.84V767.853V767.866V767.878V767.891V767.904V767.917V767.93V767.942V767.955V767.968V767.981V767.993V768.006V768.019V768.032V768.045V768.057V768.07V768.083V768.096V768.108V768.121V768.134V768.147V768.16V768.172V768.185V768.198V768.211V768.224V768.236V768.249V768.262V768.275V768.287V768.3V768.313V768.326V768.339V768.351V768.364V768.377V768.39V768.402V768.415V768.428V768.441V768.454V768.466V768.479V768.492V768.505V768.517V768.53V768.543V768.556V768.569V768.581V768.594V768.607V768.62V768.633V768.645V768.658V768.671V768.684V768.696V768.709V768.722V768.735V768.747V768.76V768.773V768.786V768.799V768.811V768.824V768.837V768.85V768.863V768.875V768.888V768.901V768.914V768.926V768.939V768.952V768.965V768.978V768.99V769.003V769.016V769.029V769.042V769.054V769.067V769.08V769.093V769.105V769.118V769.131V769.144V769.156V769.169V769.182V769.195V769.208V769.22V769.233V769.246V769.259V769.272V769.284V769.297V769.31V769.323V769.335V769.348V769.361V769.374V769.387V769.399V769.412V769.425V769.438V769.451V769.463V769.476V769.489V769.502V769.514V769.527V769.54V769.553V769.565V769.578V769.591V769.604V769.617V769.629V769.642V769.655V769.668V769.681V769.693V769.706V769.719V769.732V769.744V769.757V769.77V769.783V769.796V769.808V769.821V769.834V769.847V769.859V769.872V769.885V769.898V769.911V769.923V769.936V769.949V769.962V769.974V769.987V770V770.013V770.026V770.038V770.051V770.064V770.077V770.09V770.102V770.115V770.128V770.141V770.153V770.166V770.179V770.192V770.205V770.217V770.23V770.243V770.256V770.268V770.281V770.294V770.307V770.32V770.332V770.345V770.358V770.371V770.383V770.396V770.409V770.422V770.435V770.447V770.46V770.473V770.486V770.499V770.511V770.524V770.537V770.55V770.562V770.575V770.588V770.601V770.614V770.626V770.639V770.652V770.665V770.677V770.69V770.703V770.716V770.729V770.741V770.754V770.767V770.78V770.792V770.805V770.818V770.831V770.844V770.856V770.869V770.882V770.895V770.908V770.92V770.933V770.946V770.959V770.971V770.984V770.997V771.01V771.023V771.035V771.048V771.061V771.074V771.086V771.099V771.112V771.125V771.138V771.15V771.163V771.176V771.189V771.201V771.214V771.227V771.24V771.253V771.265V771.278V771.291V771.304V771.317V771.329V771.342V771.355V771.368V771.38V771.393V771.406V771.419V771.432V771.444V771.457V771.47V771.483V771.495V771.508V771.521V771.534V771.547V771.559V771.572V771.585V771.598V771.61V771.623V771.636V771.649V771.662V771.674V771.687V771.7V771.713V771.726V771.738V771.751V771.764V771.777V771.789V771.802V771.815V771.828V771.841V771.853V771.866V771.879V771.892V771.904V771.917V771.93V771.943V771.956V771.968V771.981V771.994V772.007V772.019V772.032V772.045V772.058V772.071V772.083V772.096V772.109V772.122V772.135V772.147V772.16V772.173V772.186V772.198V772.211V772.224V772.237V772.25V772.262V772.275V772.288V772.301V772.313V772.326V772.339V772.352V772.365V772.377V772.39V772.403V772.416V772.428V772.441V772.454V772.467V772.48V772.492V772.505V772.518V772.531V772.544V772.556V772.569V772.582V772.595V772.607V772.62V772.633V772.646V772.659V772.671V772.684V772.697V772.71V772.722V772.735V772.748V772.761V772.774V772.786V772.799V772.812V772.825V772.837V772.85V772.863V772.876V772.889V772.901V772.914V772.927V772.94V772.953V772.965V772.978V772.991V773.004V773.016V773.029V773.042V773.055V773.068V773.08V773.093V773.106V773.119V773.131V773.144V773.157V773.17V773.183V773.195V773.208V773.221V773.234V773.246V773.259V773.272V773.285V773.298V773.31V773.323V773.336V773.349V773.362V773.374V773.387V773.4V773.413V773.425V773.438V773.451V773.464V773.477V773.489V773.502V773.515V773.528V773.54V773.553V773.566V773.579V773.592V773.604V773.617V773.63V773.643V773.655V773.668V773.681V773.694V773.707V773.719V773.732V773.745V773.758V773.771V773.783V773.796V773.809V773.822V773.834V773.847V773.86V773.873V773.886V773.898V773.911V773.924V773.937V773.949V773.962V773.975V773.988V774.001V774.013V774.026V774.039V774.052V774.064V774.077V774.09V774.103V774.116V774.128V774.141V774.154V774.167V774.18V774.192V774.205V774.218V774.231V774.243V774.256V774.269V774.282V774.294V774.307V774.32V774.333V774.346V774.358V774.371V774.384V774.397V774.41V774.422V774.435V774.448V774.461V774.473V774.486V774.499V774.512V774.525V774.537V774.55V774.563V774.576V774.589V774.601V774.614V774.627V774.64V774.652V774.665V774.678V774.691V774.703V774.716V774.729V774.742V774.755V774.767V774.78V774.793V774.806V774.819V774.831V774.844V774.857V774.87V774.882V774.895V774.908V774.921V774.934V774.946V774.959V774.972V774.985V774.997V775.01V775.023V775.036V775.049V775.061V775.074V775.087V775.1V775.112V775.125V775.138V775.151V775.164V775.176V775.189V775.202V775.215V775.228V775.24V775.253V775.266V775.279V775.291V775.304V775.317V775.33V775.343V775.355V775.368V775.381V775.394V775.406V775.419V775.432V775.445V775.458V775.47V775.483V775.496V775.509V775.521V775.534V775.547V775.56V775.573V775.585V775.598V775.611V775.624V775.637V775.649V775.662V775.675V775.688V775.7V775.713V775.726V775.739V775.752V775.764V775.777V775.79V775.803V775.815V775.828V775.841V775.854V775.867V775.879V775.892V775.905V775.918V775.93V775.943V775.956V775.969V775.982V775.994V776.007V776.02V776.033V776.046V776.058V776.071V776.084V776.097V776.109V776.122V776.135V776.148V776.161V776.173V776.186V776.199V776.212V776.224V776.237V776.25V776.263V776.276V776.288V776.301V776.314V776.327V776.339V776.352V776.365V776.378V776.391V776.403V776.416V776.429V776.442V776.454V776.467V776.48V776.493V776.506V776.518V776.531V776.544V776.557V776.57V776.582V776.595V776.608V776.621V776.633V776.646V776.659V776.672V776.685V776.697V776.71V776.723V776.736V776.748V776.761V776.774V776.787V776.8V776.812V776.825V776.838V776.851V776.863V776.876V776.889V776.902V776.915V776.927V776.94V776.953V776.966V776.979V776.991V777.004V777.017V777.03L312.682 777.042L312.683 777.047C315.809 1147.2 580.947 1454.86 931.652 1523.43Z" stroke="white" />
</svg>