<?xml version="1.0" encoding="utf-8"?>
<!-- Generator: Adobe Illustrator 22.1.0, SVG Export Plug-In . SVG Version: 6.00 Build 0)  -->
<svg version="1.1" id="Capa_1" xmlns="http://www.w3.org/2000/svg" xmlns:xlink="http://www.w3.org/1999/xlink" x="0px" y="0px"
	 viewBox="0 0 216.7 230.8" style="enable-background:new 0 0 216.7 230.8;" xml:space="preserve">
<style type="text/css">
	.st0{clip-path:url(#SVGID_2_);}
	.st1{clip-path:url(#SVGID_2_);fill:#FEFEFE;}
	.st2{clip-path:url(#SVGID_2_);fill:#F4F4F4;}
	.st3{clip-path:url(#SVGID_2_);fill:#F2F2F2;}
	.st4{clip-path:url(#SVGID_2_);fill:#ECECEC;}
	.st5{clip-path:url(#SVGID_2_);fill:#E9E9E9;}
	.st6{clip-path:url(#SVGID_2_);fill:#E7E7E7;}
	.st7{clip-path:url(#SVGID_2_);fill:#010101;}
	.st8{clip-path:url(#SVGID_2_);fill:#030303;}
	.st9{clip-path:url(#SVGID_2_);fill:#070707;}
</style>
<g>
	<defs>
		<rect id="SVGID_1_" width="216.7" height="230.8"/>
	</defs>
	<clipPath id="SVGID_2_">
		<use xlink:href="#SVGID_1_"  style="overflow:visible;"/>
	</clipPath>
	<path class="st0" d="M105.8,0c2.6,4.2,5.7,5.7,11,4.6c16.3-3.3,32.2-3.2,45.6,8.8c1.7,1.5,2.6,0.1,3.9-0.3c1.4-0.5,3.3-1.9,4.3,0.5
		c0.8,1.9-0.2,3-2.2,3.6c-3.4,0.9-1.4,2.5-0.3,3.9c6.3,8,12.8,15.9,14.8,26.2c4.9,25.8-0.7,49.2-17.6,69.5
		c-6.7,8.1-15.8,11.2-26.2,11.1c-4.5,0-9,0.1-13.5-0.3c-4.7-0.4-4.7,1.5-3.2,5.1c2.2,5.1,5.5,9.5,9.2,13.5
		c4.4,4.9,8.7,9.5,11.8,15.7c3.7,7.3,10.9,12.4,18.1,16.7c12.9,7.7,27.2,12.3,41,17.8c5.8,2.3,10,4.9,10.6,11.8
		c0.3,3.3,2.3,6.4,3.5,9.6v5c-1.5,1.8-3.2,2.4-5.2,0.8c-0.8-0.6-1.4-1.5-2.5-1.4c-5.4,0.3-5.2-3.2-4.6-6.8c-0.4,2.3,0.2,5.6-3.7,5.5
		c-3.8-0.1-4.2-3.2-4.4-6.1c-0.1-2.3,0-4.6,0.6-6.9c1.4-5.8,0.8-6.7-5-8.7c-7.4-2.6-14.8-5-22.2-7.7c-12.1-4.5-21.9-11.7-29.2-22.4
		c-2.8-4.1-5.9-8-10.5-10.5c-1.9-1.1-3.1-2.9-3.8-5.1c-1-3.4-2.8-6.4-5.1-9.7c2.7,18.9,7,37,12.1,54.9c2.5,8.6,5.1,17.2,7.6,25.9
		c0.7,2.6,1.1,5-2,6.3h-4c-0.8-8.7-4.1-16.7-6.5-25c-5.7-19.8-11.5-39.5-14-60c-0.6-4.9-1.2-9.9-1.4-14.9c-0.1-2.4-0.8-3.8-3.3-3.9
		c-0.2,0-0.3,0-0.5-0.1c-11.9-4.7-23.2-3.8-34.9,1.7c-7.6,3.5-16,5.4-24.1,7.9c-3.2,1-5.4,2.9-7.3,5.6c-5.9,8.3-10.2,17.5-13.5,27.1
		c-0.9,2.6-2,4.8-4,6.7c-3.8,3.7-6.1,8.2-7.4,13.3c-0.6,2.6-0.2,3.3,2.7,3.4c9.6,0.1,15.4,5.6,15.2,13.9c-2.6,0-4-2-5.6-3.6
		c-1.4-1.4-2.5-3.2-4-4.4c-2.4-2-5.6-3.8-8.1-1.6c-1.9,1.6,0.5,4.5,1.5,6.7c2.3,4.8,6.6,8.7,7.1,15.1c-10.2-3.2-9.3-13.7-14.3-20.3
		C6.6,206.5,15.2,213,15,221c-6.8-2.3-6.3-9.2-9.6-13.7c-2.5,3.5-0.8,6.9-1.1,10.2c-0.1,1.5,0.6,4-1.4,4.2c-2.1,0.2-1.7-2.4-2.1-3.9
		c-1.9-7.1,0.3-13.3,4.7-18.6c7.3-8.7,12.1-18.4,16.4-28.8c3.1-7.6,8.4-14.1,10.6-22.6c1.8-6.7,8.4-10.9,14.7-14.2
		c7.8-4.2,16.1-7,24.8-8.8c3.9-0.8,7.7-2,10.9-4.6c2.3-1.8,2.3-3-0.3-4.7C71.9,108.5,63,99.8,57,88.5C47.6,71,49,47.7,68.3,31
		c10-8.6,21.3-14.7,32.7-20.8c2.4-1.3,6.7-1.8,2.7-6.2c-1.2-1.3,0.4-2.7,1-4H105.8z"/>
	<path class="st1" d="M124,10.3c3-1.1,6.8,1.3,7.7-3.2c0-0.1,0.9-0.2,1.4-0.1c7.3,0.7,14.3,2.6,21,5.7c1.6,0.8,1.4,1.8,0.5,2.7
		c-1,1-2.3,2.2-3.6,2.5c-5.5,1.1-5,4.6-3.8,8.6c3.1,10,11.9,15.7,22.4,13.7c4.3-0.8,6.2,0.3,7.3,4.5c5.3,20.1,4,39.7-6.4,57.8
		c-7.5,13.2-19.5,20.1-34.9,20.4c-1.8,0-3.7,0.2-5.5,0.2c-11.3,0-11.3,0.1-14.5-10.5c-0.9-2.9-1.7-4.2-5.1-2.4
		c-5,2.6-10.4,4.3-15.6,6.5c-1.2,0.5-2.2,0.4-3.3-0.3C77.2,107.5,64.9,96.5,58,80.6c-6.3-14.4-1.5-33.5,10.8-44.6
		c5.6-5,12-9,18-13.4c1.7-1.2,2.3-0.7,3.7,0.4c10.6,8.8,22.6,9.6,35.2,5.7c5.4-1.7,7.9-9.1,15.2-7.9c1.1,0.2,2.7-2.2,4-3.5
		c1.1-1.1,1.2-2.2,0.1-3.5c-1.1-1.3-2.3-0.6-3.1,0.1c-3.4,3.1-6.6,1.9-10,0C129.5,12.6,127.1,11.7,124,10.3"/>
	<path class="st2" d="M124,16.4c-8.3,2.8-16,0.5-24.4,0.9C107.4,10.7,114.9,10.4,124,16.4"/>
	<path class="st3" d="M97.1,22.3c8.1-1.5,15.2-2.7,22.4,0.7C114.5,26.6,105.2,26.4,97.1,22.3"/>
	<path class="st4" d="M154,23.9c5.7-5.4,6.7-5.1,13.3,2.8C162.2,28.8,159.3,23.3,154,23.9"/>
	<path class="st5" d="M100.8,119.6c2.3-2.3,5.7-0.8,8.1-3.2c0.8-0.9,1.8,2.4,2,4.2c0.3,1.9-0.6,2.5-2.2,2.1
		C106.1,121.9,103.2,121.7,100.8,119.6"/>
	<path class="st6" d="M161.7,34.8c-4.4-1-7.6-2.3-8.3-6.7C155.9,30.5,162.3,27.7,161.7,34.8"/>
	<path class="st7" d="M95.6,44.8c14.7-10.2,30.8-8.4,46.7-4c14.2,3.9,25.6,11.5,28.7,28c-5.2-0.6-8.4-3.4-8.9-7.7
		c-0.5-4.9-3.7-7.3-7-9.6c-7.5-5.3-16.2-7.6-25.2-8.3c-8.9-0.7-17.9-0.9-26.6,2.3C100.9,46.4,98.3,46.8,95.6,44.8"/>
	<path class="st8" d="M125.1,50.7c2.7-3.3,5.7-3.7,9.2-3.1c6.5,1.2,12.4,4.7,19.1,5.1c1.3,0.1,1.6,1,1.7,2c0.2,1.6-1.1,1.9-2.2,2.1
		c-3.4,0.4-6.5-0.5-9.7-1.5C137.3,53.6,131.7,51.3,125.1,50.7"/>
	<path class="st9" d="M91.3,41.1c2.9,2.3,2.8,5.7,3.8,8.5c0.6,1.7-0.9,1.9-1.9,2.3c-1.2,0.5-2.2,0.2-2.7-1.2
		C89.5,47.4,89.5,44.3,91.3,41.1"/>
</g>
</svg>
