<svg width="74" height="68" viewBox="0 0 74 68" fill="none" xmlns="http://www.w3.org/2000/svg">
<path d="M4.09316 67.8973C2.93343 67.8973 1.96131 67.5051 1.17678 66.7205C0.392261 65.936 0 64.9639 0 63.8042V59.711C0 58.5513 0.392261 57.5792 1.17678 56.7946C1.96131 56.0101 2.93343 55.6178 4.09316 55.6178C5.25289 55.6178 6.22501 56.0101 7.00953 56.7946C7.79406 57.5792 8.18632 58.5513 8.18632 59.711V63.8042C8.18632 64.9639 7.79406 65.936 7.00953 66.7205C6.22501 67.5051 5.25289 67.8973 4.09316 67.8973ZM20.4658 67.8973C19.3061 67.8973 18.3339 67.5051 17.5494 66.7205C16.7649 65.936 16.3726 64.9639 16.3726 63.8042V41.2918C16.3726 40.1321 16.7649 39.1599 17.5494 38.3754C18.3339 37.5909 19.3061 37.1986 20.4658 37.1986C21.6255 37.1986 22.5976 37.5909 23.3822 38.3754C24.1667 39.1599 24.559 40.1321 24.559 41.2918V63.8042C24.559 64.9639 24.1667 65.936 23.3822 66.7205C22.5976 67.5051 21.6255 67.8973 20.4658 67.8973ZM36.8384 67.8973C35.6787 67.8973 34.7066 67.5051 33.9221 66.7205C33.1375 65.936 32.7453 64.9639 32.7453 63.8042V49.4781C32.7453 48.3184 33.1375 47.3463 33.9221 46.5617C34.7066 45.7772 35.6787 45.3849 36.8384 45.3849C37.9982 45.3849 38.9703 45.7772 39.7548 46.5617C40.5393 47.3463 40.9316 48.3184 40.9316 49.4781V63.8042C40.9316 64.9639 40.5393 65.936 39.7548 66.7205C38.9703 67.5051 37.9982 67.8973 36.8384 67.8973ZM53.2111 67.8973C52.0513 67.8973 51.0792 67.5051 50.2947 66.7205C49.5102 65.936 49.1179 64.9639 49.1179 63.8042V43.3384C49.1179 42.1786 49.5102 41.2065 50.2947 40.422C51.0792 39.6375 52.0513 39.2452 53.2111 39.2452C54.3708 39.2452 55.3429 39.6375 56.1274 40.422C56.912 41.2065 57.3042 42.1786 57.3042 43.3384V63.8042C57.3042 64.9639 56.912 65.936 56.1274 66.7205C55.3429 67.5051 54.3708 67.8973 53.2111 67.8973ZM69.5837 67.8973C68.424 67.8973 67.4518 67.5051 66.6673 66.7205C65.8828 65.936 65.4905 64.9639 65.4905 63.8042V26.9657C65.4905 25.806 65.8828 24.8339 66.6673 24.0494C67.4518 23.2648 68.424 22.8726 69.5837 22.8726C70.7434 22.8726 71.7156 23.2648 72.5001 24.0494C73.2846 24.8339 73.6769 25.806 73.6769 26.9657V63.8042C73.6769 64.9639 73.2846 65.936 72.5001 66.7205C71.7156 67.5051 70.7434 67.8973 69.5837 67.8973ZM45.0247 30.9566C43.9332 30.9566 42.8929 30.7519 41.9037 30.3426C40.9145 29.9333 40.0106 29.3534 39.192 28.603L28.6521 18.0631L6.95837 39.7569C6.13974 40.5755 5.16761 40.9677 4.04199 40.9336C2.91638 40.8995 1.94425 40.4732 1.12562 39.6545C0.375206 38.8359 0.0170548 37.8638 0.0511645 36.7381C0.0852741 35.6125 0.477535 34.6745 1.22795 33.9241L22.8194 12.3327C23.638 11.5141 24.5419 10.9171 25.5311 10.5419C26.5203 10.1667 27.5606 9.97912 28.6521 9.97912C29.7436 9.97912 30.801 10.1667 31.8243 10.5419C32.8476 10.9171 33.7345 11.5141 34.4849 12.3327L45.0247 22.8726L66.7185 1.17883C67.5371 0.360198 68.5092 -0.0320631 69.6349 0.00204658C70.7605 0.0361562 71.7326 0.462527 72.5512 1.28116C73.3017 2.09979 73.6598 3.07192 73.6257 4.19753C73.5916 5.32315 73.1993 6.26117 72.4489 7.01158L50.8575 28.603C50.1071 29.3534 49.2202 29.9333 48.1969 30.3426C47.1737 30.7519 46.1163 30.9566 45.0247 30.9566Z" fill="white"/>
</svg>
