<svg width="72" height="72" viewBox="0 0 72 72" fill="none" xmlns="http://www.w3.org/2000/svg">
<path d="M24.252 27.4242L32.336 19.3402C32.9499 18.7262 33.6662 18.4192 34.4849 18.4192C35.3035 18.4192 36.0198 18.7262 36.6338 19.3402C37.2477 19.9542 37.5547 20.6705 37.5547 21.4891C37.5547 22.3077 37.2477 23.024 36.6338 23.638L27.2195 33.1546C26.4009 33.9732 25.4458 34.3825 24.3543 34.3825C23.2628 34.3825 22.3077 33.9732 21.4891 33.1546L16.5773 28.3451C15.9633 27.7994 15.6563 27.1001 15.6563 26.2474C15.6563 25.3946 15.9633 24.6613 16.5773 24.0473C17.1913 23.4333 17.9076 23.1263 18.7262 23.1263C19.5448 23.1263 20.2611 23.4333 20.8751 24.0473L24.252 27.4242ZM26.6055 53.2111C19.1696 53.2111 12.8764 50.6358 7.72584 45.4852C2.57528 40.3347 0 34.0414 0 26.6055C0 19.1696 2.57528 12.8764 7.72584 7.72584C12.8764 2.57528 19.1696 0 26.6055 0C34.0414 0 40.3347 2.57528 45.4852 7.72584C50.6358 12.8764 53.2111 19.1696 53.2111 26.6055C53.2111 29.6072 52.7335 32.4383 51.7785 35.0988C50.8234 37.7594 49.5272 40.113 47.89 42.1595L70.8117 65.0812C71.5621 65.8316 71.9373 66.7867 71.9373 67.9464C71.9373 69.1062 71.5621 70.0612 70.8117 70.8117C70.0612 71.5621 69.1062 71.9373 67.9464 71.9373C66.7867 71.9373 65.8316 71.5621 65.0812 70.8117L42.1595 47.89C40.113 49.5272 37.7594 50.8234 35.0988 51.7785C32.4383 52.7335 29.6072 53.2111 26.6055 53.2111ZM26.6055 45.0247C31.722 45.0247 36.071 43.234 39.6525 39.6525C43.234 36.071 45.0247 31.722 45.0247 26.6055C45.0247 21.4891 43.234 17.1401 39.6525 13.5586C36.071 9.97708 31.722 8.18632 26.6055 8.18632C21.4891 8.18632 17.1401 9.97708 13.5586 13.5586C9.97708 17.1401 8.18632 21.4891 8.18632 26.6055C8.18632 31.722 9.97708 36.071 13.5586 39.6525C17.1401 43.234 21.4891 45.0247 26.6055 45.0247Z" fill="white"/>
</svg>
