<svg width="85" height="85" viewBox="0 0 85 85" fill="none" xmlns="http://www.w3.org/2000/svg">
<path d="M42.5 68C49.5833 68 55.6042 65.5208 60.5625 60.5625C65.5208 55.6042 68 49.5833 68 42.5C68 36.3375 66.0344 30.9188 62.1031 26.2438C58.1719 21.5688 53.1958 18.6292 47.175 17.425C45.9 17.2833 44.8021 17.6375 43.8813 18.4875C42.9604 19.3375 42.5 20.4 42.5 21.675V42.5L27.8375 57.1625C26.9167 58.0833 26.4917 59.1813 26.5625 60.4563C26.6333 61.7313 27.1646 62.7583 28.1562 63.5375C30.2104 65.1667 32.4771 66.3177 34.9562 66.9906C37.4354 67.6635 39.95 68 42.5 68ZM42.5 85C36.6208 85 31.0958 83.8844 25.925 81.6531C20.7542 79.4219 16.2563 76.3938 12.4313 72.5687C8.60625 68.7438 5.57812 64.2458 3.34688 59.075C1.11563 53.9042 0 48.3792 0 42.5C0 36.6208 1.11563 31.0958 3.34688 25.925C5.57812 20.7542 8.60625 16.2563 12.4313 12.4313C16.2563 8.60625 20.7542 5.57812 25.925 3.34688C31.0958 1.11563 36.6208 0 42.5 0C48.3792 0 53.9042 1.11563 59.075 3.34688C64.2458 5.57812 68.7438 8.60625 72.5687 12.4313C76.3938 16.2563 79.4219 20.7542 81.6531 25.925C83.8844 31.0958 85 36.6208 85 42.5C85 48.3792 83.8844 53.9042 81.6531 59.075C79.4219 64.2458 76.3938 68.7438 72.5687 72.5687C68.7438 76.3938 64.2458 79.4219 59.075 81.6531C53.9042 83.8844 48.3792 85 42.5 85Z" fill="white"/>
</svg>
