<svg width="78" height="84" viewBox="0 0 78 84" fill="none" xmlns="http://www.w3.org/2000/svg">
<path d="M39.1668 84C35.1408 84 31.574 82.74 28.4662 80.22C25.3584 77.7 23.4161 74.48 22.6391 70.56C18.8957 71.75 15.1169 71.68 11.3028 70.35C7.48876 69.02 4.55757 66.71 2.50926 63.42C0.39033 60.06 -0.386612 56.3325 0.178437 52.2375C0.743485 48.1425 2.57989 44.73 5.68766 42C2.72116 39.34 0.937721 36.05 0.337357 32.13C-0.263008 28.21 0.39033 24.57 2.29737 21.21C4.20441 17.85 7.08263 15.4175 10.932 13.9125C14.7814 12.4075 18.6132 12.25 22.4272 13.44C23.2042 9.52 25.1465 6.3 28.2543 3.78C31.3621 1.26 34.9289 0 38.9549 0C42.9809 0 46.5478 1.26 49.6555 3.78C52.7633 6.3 54.7057 9.52 55.4826 13.44C59.4379 12.25 63.2697 12.355 66.9778 13.755C70.686 15.155 73.5642 17.64 75.6125 21.21C77.5195 24.71 78.2082 28.3675 77.6784 32.1825C77.1487 35.9975 75.3299 39.27 72.2222 42C75.3299 44.73 77.184 48.1075 77.7844 52.1325C78.3847 56.1575 77.7314 59.92 75.8244 63.42C73.7761 66.99 70.8978 69.37 67.1897 70.56C63.4816 71.75 59.6498 71.75 55.6945 70.56C54.9176 74.48 52.9752 77.7 49.8674 80.22C46.7597 82.74 43.1928 84 39.1668 84ZM38.9549 58.8C43.6166 58.8 47.6072 57.155 50.9269 53.865C54.2466 50.575 55.9064 46.62 55.9064 42C55.9064 37.38 54.2466 33.425 50.9269 30.135C47.6072 26.845 43.6166 25.2 38.9549 25.2C34.2933 25.2 30.3026 26.845 26.9829 30.135C23.6633 33.425 22.0035 37.38 22.0035 42C22.0035 46.62 23.6633 50.575 26.9829 53.865C30.3026 57.155 34.2933 58.8 38.9549 58.8Z" fill="white"/>
</svg>
