<svg width="83" height="73" viewBox="0 0 83 73" fill="none" xmlns="http://www.w3.org/2000/svg">
<path d="M17.0256 73C15.8197 73 14.8088 72.5885 13.9929 71.7654C13.1771 70.9424 12.7692 69.9225 12.7692 68.7059V60.1176H4.25641C3.05043 60.1176 2.03953 59.7061 1.22372 58.8831C0.407906 58.0601 0 57.0402 0 55.8235C0 54.6069 0.407906 53.587 1.22372 52.764C2.03953 51.9409 3.05043 51.5294 4.25641 51.5294H12.7692V42.9412C12.7692 41.7245 13.1771 40.7047 13.9929 39.8816C14.8088 39.0586 15.8197 38.6471 17.0256 38.6471C18.2316 38.6471 19.2425 39.0586 20.0583 39.8816C20.8741 40.7047 21.2821 41.7245 21.2821 42.9412V51.5294H29.7949C31.0009 51.5294 32.0118 51.9409 32.8276 52.764C33.6434 53.587 34.0513 54.6069 34.0513 55.8235C34.0513 57.0402 33.6434 58.0601 32.8276 58.8831C32.0118 59.7061 31.0009 60.1176 29.7949 60.1176H21.2821V68.7059C21.2821 69.9225 20.8741 70.9424 20.0583 71.7654C19.2425 72.5885 18.2316 73 17.0256 73ZM39.159 68.7059C40.294 66.7735 41.1453 64.7159 41.7128 62.5331C42.2803 60.3502 42.5641 58.1137 42.5641 55.8235C42.5641 48.6667 40.0812 42.5833 35.1154 37.5735C30.1496 32.5637 24.1197 30.0588 17.0256 30.0588C13.8333 30.0588 10.7829 30.6314 7.87436 31.7765C4.96581 32.9216 2.34103 34.5319 0 36.6074V8.58824C0 6.22647 0.833547 4.20466 2.50064 2.52279C4.16774 0.840931 6.17179 0 8.51282 0H55.3333C56.6812 0 57.9581 0.304167 59.1641 0.9125C60.3701 1.52083 61.3632 2.36176 62.1436 3.43529L81.2974 29.2C82.4325 30.7029 83 32.4206 83 34.3529C83 36.2853 82.4325 38.0029 81.2974 39.5059L62.1436 65.2706C61.3632 66.3441 60.3701 67.1851 59.1641 67.7934C57.9581 68.4017 56.6812 68.7059 55.3333 68.7059H39.159Z" fill="white"/>
</svg>
