<svg width="67" height="67" viewBox="0 0 67 67" fill="none" xmlns="http://www.w3.org/2000/svg">
<path d="M45.7509 66.5468C44.5725 66.5468 43.5847 66.1482 42.7875 65.351C41.9903 64.5538 41.5917 63.566 41.5917 62.3876C41.5917 61.2092 41.9903 60.2214 42.7875 59.4242C43.5847 58.627 44.5725 58.2284 45.7509 58.2284H52.4056L42.1116 47.9345C41.2798 47.1026 40.8812 46.1148 40.9159 44.9711C40.9505 43.8273 41.3838 42.8395 42.2156 42.0076C43.0474 41.1758 44.0352 40.7599 45.179 40.7599C46.3228 40.7599 47.3106 41.1758 48.1424 42.0076L58.2284 52.1976V45.7509C58.2284 44.5725 58.627 43.5847 59.4242 42.7875C60.2214 41.9903 61.2092 41.5917 62.3876 41.5917C63.566 41.5917 64.5538 41.9903 65.351 42.7875C66.1482 43.5847 66.5468 44.5725 66.5468 45.7509V62.3876C66.5468 63.566 66.1482 64.5538 65.351 65.351C64.5538 66.1482 63.566 66.5468 62.3876 66.5468H45.7509ZM1.24775 65.299C0.485237 64.5365 0.103979 63.566 0.103979 62.3876C0.103979 61.2092 0.485237 60.2387 1.24775 59.4762L52.4056 8.31835H45.7509C44.5725 8.31835 43.5847 7.91976 42.7875 7.12258C41.9903 6.32541 41.5917 5.3376 41.5917 4.15917C41.5917 2.98074 41.9903 1.99294 42.7875 1.19576C43.5847 0.398587 44.5725 0 45.7509 0H62.3876C63.566 0 64.5538 0.398587 65.351 1.19576C66.1482 1.99294 66.5468 2.98074 66.5468 4.15917V20.7959C66.5468 21.9743 66.1482 22.9621 65.351 23.7593C64.5538 24.5564 63.566 24.955 62.3876 24.955C61.2092 24.955 60.2214 24.5564 59.4242 23.7593C58.627 22.9621 58.2284 21.9743 58.2284 20.7959V14.1412L7.07059 65.299C6.30808 66.0615 5.3376 66.4428 4.15917 66.4428C2.98074 66.4428 2.01027 66.0615 1.24775 65.299ZM1.14377 7.07059C0.381257 6.30808 0 5.3376 0 4.15917C0 2.98074 0.381257 2.01027 1.14377 1.24775C1.90629 0.485237 2.85943 0.103979 4.0032 0.103979C5.14698 0.103979 6.13478 0.485237 6.96661 1.24775L24.4351 18.6123C25.1977 19.3748 25.5962 20.328 25.6309 21.4717C25.6656 22.6155 25.267 23.6033 24.4351 24.4351C23.6726 25.1977 22.7022 25.5789 21.5237 25.5789C20.3453 25.5789 19.3748 25.1977 18.6123 24.4351L1.14377 7.07059Z" fill="white"/>
</svg>
