<svg width="69" height="74" viewBox="0 0 69 74" fill="none" xmlns="http://www.w3.org/2000/svg">
<path d="M1.58765 50.4482C0.49614 49.6296 -0.0325592 48.5551 0.00155044 47.2248C0.0356601 45.8945 0.598469 44.8201 1.68998 44.0015C2.44039 43.4557 3.25902 43.1828 4.14587 43.1828C5.03272 43.1828 5.85136 43.4557 6.60177 44.0015L34.2306 65.3882L61.8594 44.0015C62.6098 43.4557 63.4285 43.1828 64.3153 43.1828C65.2022 43.1828 66.0208 43.4557 66.7712 44.0015C67.8627 44.8201 68.4255 45.8945 68.4596 47.2248C68.4937 48.5551 67.965 49.6296 66.8735 50.4482L39.2447 71.9373C37.7439 73.097 36.0725 73.6769 34.2306 73.6769C32.3887 73.6769 30.7173 73.097 29.2165 71.9373L1.58765 50.4482ZM29.2165 51.2668L5.68081 32.9499C3.56601 31.3127 2.50861 29.1638 2.50861 26.5032C2.50861 23.8426 3.56601 21.6937 5.68081 20.0565L29.2165 1.73959C30.7173 0.579864 32.3887 0 34.2306 0C36.0725 0 37.7439 0.579864 39.2447 1.73959L62.7804 20.0565C64.8952 21.6937 65.9526 23.8426 65.9526 26.5032C65.9526 29.1638 64.8952 31.3127 62.7804 32.9499L39.2447 51.2668C37.7439 52.4265 36.0725 53.0064 34.2306 53.0064C32.3887 53.0064 30.7173 52.4265 29.2165 51.2668Z" fill="white"/>
</svg>
