<svg width="77" height="86" viewBox="0 0 77 86" fill="none" xmlns="http://www.w3.org/2000/svg">
<path d="M9.19722 76.755C6.27407 73.315 4.01042 69.4629 2.40625 65.1988C0.802083 60.9346 0 56.4017 0 51.6C0 40.85 3.74306 31.7125 11.2292 24.1875C18.7153 16.6625 27.8056 12.9 38.5 12.9H39.3556L32.5111 6.02L38.5 0L55.6111 17.2L38.5 34.4L32.4042 28.2725L39.1417 21.5H38.5C30.2296 21.5 23.1713 24.4383 17.325 30.315C11.4787 36.1917 8.55556 43.2867 8.55556 51.6C8.55556 55.255 9.14375 58.695 10.3201 61.92C11.4965 65.145 13.1542 68.0475 15.2931 70.6275L9.19722 76.755ZM34.2222 75.25C34.2222 73.6017 33.6697 71.9713 32.5646 70.3587C31.4595 68.7463 30.2296 67.0621 28.875 65.3063C27.5204 63.5504 26.2905 61.7229 25.1854 59.8237C24.0803 57.9246 23.5278 55.9 23.5278 53.75C23.5278 49.5933 24.9894 46.0458 27.9125 43.1075C30.8356 40.1692 34.3648 38.7 38.5 38.7C42.6352 38.7 46.1644 40.1692 49.0875 43.1075C52.0106 46.0458 53.4722 49.5933 53.4722 53.75C53.4722 55.9 52.9197 57.9246 51.8146 59.8237C50.7095 61.7229 49.4796 63.5504 48.125 65.3063C46.7704 67.0621 45.5405 68.7463 44.4354 70.3587C43.3303 71.9713 42.7778 73.6017 42.7778 75.25H34.2222ZM34.2222 86V79.55H42.7778V86H34.2222ZM67.8028 76.755L61.7069 70.6275C63.8458 68.0475 65.5035 65.145 66.6799 61.92C67.8562 58.695 68.4444 55.255 68.4444 51.6C68.4444 46.87 67.4641 42.4804 65.5035 38.4313C63.5428 34.3821 60.8514 30.9958 57.4292 28.2725L63.525 22.145C67.6602 25.7283 70.9398 30.0463 73.3639 35.0988C75.788 40.1512 77 45.6517 77 51.6C77 56.4017 76.1979 60.9346 74.5938 65.1988C72.9896 69.4629 70.7259 73.315 67.8028 76.755Z" fill="white"/>
</svg>
