<svg width="81" height="82" viewBox="0 0 81 82" fill="none" xmlns="http://www.w3.org/2000/svg">
<path d="M16.1387 40.845C17.9092 36.3507 20.0371 32.0266 22.5226 27.8728C25.0081 23.719 27.8171 19.8035 30.9495 16.1263L25.638 15.0027C24.2761 14.7303 22.9482 14.7984 21.6544 15.207C20.3606 15.6156 19.237 16.2965 18.2837 17.2499L5.4136 30.1199C4.39217 31.1414 4.00062 32.3671 4.23895 33.7971C4.47729 35.2271 5.27741 36.2145 6.63933 36.7593L16.1387 40.845ZM76.199 1.00905C68.9809 0.668576 62.1203 2.06454 55.6171 5.19694C49.114 8.32934 43.3088 12.4491 38.2017 17.5563C34.9331 20.8249 32.056 24.3659 29.5705 28.1792C27.085 31.9926 24.923 36.0102 23.0844 40.2321C22.7439 41.1174 22.5737 42.0197 22.5737 42.9389C22.5737 43.8582 22.9142 44.6584 23.5951 45.3393L36.3631 58.1073C37.044 58.7882 37.8442 59.1287 38.7634 59.1287C39.6827 59.1287 40.585 58.9584 41.4702 58.618C45.6922 56.7794 49.7098 54.6174 53.5232 52.1319C57.3365 49.6464 60.8775 46.7693 64.1461 43.5007C69.2533 38.3936 73.3731 32.5884 76.5055 26.0853C79.6379 19.5821 81.0338 12.7215 80.6933 5.50337C80.6933 4.9586 80.5571 4.41384 80.2848 3.86907C80.0124 3.32431 79.6719 2.84764 79.2633 2.43906C78.8548 2.03049 78.3781 1.69001 77.8333 1.41763C77.2886 1.14525 76.7438 1.00905 76.199 1.00905ZM50.2546 31.4478C48.6884 29.8816 47.9053 27.9579 47.9053 25.6767C47.9053 23.3955 48.6884 21.4718 50.2546 19.9056C51.8208 18.3394 53.7445 17.5563 56.0257 17.5563C58.3069 17.5563 60.2306 18.3394 61.7968 19.9056C63.363 21.4718 64.1461 23.3955 64.1461 25.6767C64.1461 27.9579 63.363 29.8816 61.7968 31.4478C60.2306 33.014 58.3069 33.7971 56.0257 33.7971C53.7445 33.7971 51.8208 33.014 50.2546 31.4478ZM40.8574 65.5637L44.9431 75.0631C45.4879 76.425 46.4753 77.2421 47.9053 77.5145C49.3353 77.7869 50.561 77.4124 51.5825 76.3909L64.4525 63.5209C65.4059 62.5675 66.0868 61.4269 66.4954 60.099C66.904 58.7712 66.9721 57.4263 66.6997 56.0644L65.6782 50.7529C61.933 53.8853 58.0005 56.6943 53.8807 59.1798C49.7609 61.6652 45.4198 63.7932 40.8574 65.5637ZM7.66076 56.7794C10.0441 54.396 12.9382 53.1873 16.343 53.1533C19.7477 53.1192 22.6418 54.2939 25.0251 56.6772C27.4085 59.0606 28.6002 61.9547 28.6002 65.3594C28.6002 68.7642 27.4085 71.6583 25.0251 74.0416C21.7566 77.3102 17.8921 79.2509 13.4319 79.8638C8.9716 80.4767 4.49431 81.0895 0 81.7024C0.612861 77.2081 1.24275 72.7308 1.88965 68.2705C2.53656 63.8103 4.46026 59.9799 7.66076 56.7794Z" fill="white"/>
</svg>
