<svg width="72" height="89" viewBox="0 0 72 89" fill="none" xmlns="http://www.w3.org/2000/svg">
<path d="M31.8426 89C29.8751 89 28.0306 88.5762 26.309 87.7286C24.5875 86.881 23.1295 85.6802 21.9349 84.1262L0.749512 57.1083C0.187378 56.4726 -0.0585556 55.7133 0.0117111 54.8304C0.0819779 53.9474 0.398178 53.2234 0.960312 52.6583C2.36565 51.175 4.05205 50.2921 6.01952 50.0095C7.98699 49.727 9.81392 50.1155 11.5003 51.175L19.2999 55.9429V21.1905C19.2999 19.9897 19.704 18.9831 20.512 18.1708C21.3201 17.3585 22.3214 16.9524 23.5159 16.9524C24.7105 16.9524 25.7293 17.3585 26.5725 18.1708C27.4157 18.9831 27.8373 19.9897 27.8373 21.1905V42.381H59.352C62.8653 42.381 65.8517 43.6171 68.311 46.0893C70.7703 48.5615 72 51.5635 72 55.0952V72.0476C72 76.7095 70.3487 80.7004 67.0462 84.0202C63.7437 87.3401 59.7736 89 55.136 89H31.8426ZM38.1666 33.9048C36.972 33.9048 35.9707 33.4986 35.1627 32.6863C34.3546 31.874 33.9506 30.8675 33.9506 29.6667C33.9506 29.5254 34.1262 28.819 34.4776 27.5476C35.0397 26.5587 35.4613 25.5522 35.7424 24.528C36.0234 23.5038 36.164 22.3913 36.164 21.1905C36.164 17.6587 34.9343 14.6567 32.475 12.1845C30.0156 9.7123 27.0293 8.47619 23.5159 8.47619C20.0026 8.47619 17.0163 9.7123 14.5569 12.1845C12.0976 14.6567 10.8679 17.6587 10.8679 21.1905C10.8679 22.3913 11.0085 23.5038 11.2895 24.528C11.5706 25.5522 11.9922 26.5587 12.5543 27.5476C12.7651 27.9008 12.9057 28.254 12.9759 28.6071C13.0462 28.9603 13.0813 29.3135 13.0813 29.6667C13.0813 30.8675 12.6949 31.874 11.9219 32.6863C11.149 33.4986 10.1653 33.9048 8.97072 33.9048C8.19779 33.9048 7.47755 33.6929 6.81002 33.269C6.14249 32.8452 5.63305 32.3155 5.28172 31.6798C4.36825 30.1258 3.66558 28.4659 3.17372 26.7C2.68185 24.9341 2.43591 23.0976 2.43591 21.1905C2.43591 15.3278 4.49122 10.3304 8.60182 6.19821C12.7124 2.06607 17.6838 0 23.5159 0C29.3481 0 34.3195 2.06607 38.4301 6.19821C42.5407 10.3304 44.596 15.3278 44.596 21.1905C44.596 23.0976 44.35 24.9341 43.8582 26.7C43.3663 28.4659 42.6636 30.1258 41.7502 31.6798C41.3988 32.3155 40.907 32.8452 40.2746 33.269C39.6422 33.6929 38.9395 33.9048 38.1666 33.9048Z" fill="white"/>
</svg>
