<svg width="135" height="94" viewBox="0 0 135 94" fill="none" xmlns="http://www.w3.org/2000/svg">
<path d="M67.5004 75.334C75.2608 75.334 81.8572 72.6178 87.2895 67.1855C92.7218 61.7533 95.4379 55.1569 95.4379 47.3965C95.4379 39.6361 92.7218 33.0397 87.2895 27.6074C81.8572 22.1751 75.2608 19.459 67.5004 19.459C59.74 19.459 53.1436 22.1751 47.7113 27.6074C42.279 33.0397 39.5629 39.6361 39.5629 47.3965C39.5629 55.1569 42.279 61.7533 47.7113 67.1855C53.1436 72.6178 59.74 75.334 67.5004 75.334ZM67.5004 64.159C62.8441 64.159 58.8863 62.5293 55.627 59.2699C52.3676 56.0105 50.7379 52.0527 50.7379 47.3965C50.7379 42.7402 52.3676 38.7824 55.627 35.523C58.8863 32.2637 62.8441 30.634 67.5004 30.634C72.1566 30.634 76.1145 32.2637 79.3738 35.523C82.6332 38.7824 84.2629 42.7402 84.2629 47.3965C84.2629 52.0527 82.6332 56.0105 79.3738 59.2699C76.1145 62.5293 72.1566 64.159 67.5004 64.159ZM67.5004 93.959C53.6351 93.959 40.9856 90.234 29.552 82.784C18.1183 75.334 9.09032 65.5041 2.4681 53.2944C1.95074 52.3632 1.56272 51.406 1.30404 50.423C1.04536 49.4401 0.916016 48.4312 0.916016 47.3965C0.916016 46.3618 1.04536 45.3529 1.30404 44.3699C1.56272 43.3869 1.95074 42.4298 2.4681 41.4986C9.09032 29.2888 18.1183 19.459 29.552 12.009C40.9856 4.55898 53.6351 0.833984 67.5004 0.833984C81.3657 0.833984 94.0152 4.55898 105.449 12.009C116.883 19.459 125.91 29.2888 132.533 41.4986C133.05 42.4298 133.438 43.3869 133.697 44.3699C133.955 45.3529 134.085 46.3618 134.085 47.3965C134.085 48.4312 133.955 49.4401 133.697 50.423C133.438 51.406 133.05 52.3632 132.533 53.2944C125.91 65.5041 116.883 75.334 105.449 82.784C94.0152 90.234 81.3657 93.959 67.5004 93.959Z" fill="white"/>
</svg>
