<svg width="87" height="86" viewBox="0 0 87 86" fill="none" xmlns="http://www.w3.org/2000/svg">
<path d="M37.4889 57.405V82.2375C37.4889 83.2408 37.1138 84.1188 36.3637 84.8713C35.6135 85.6237 34.7383 86 33.7381 86C32.6664 86 31.7376 85.6417 30.9517 84.925C30.1658 84.2083 29.7015 83.3125 29.5586 82.2375L28.2726 72.24C27.3438 71.8817 26.4686 71.4517 25.647 70.95C24.8254 70.4483 24.0216 69.9108 23.2357 69.3375L13.9122 73.2075C12.912 73.6375 11.9118 73.6913 10.9115 73.3688C9.91131 73.0462 9.12542 72.4192 8.55386 71.4875L0.623516 57.62C0.0519597 56.6883 -0.126652 55.685 0.087682 54.61C0.302016 53.535 0.83785 52.675 1.69518 52.03L9.7327 45.9025C9.66125 45.4008 9.62553 44.9171 9.62553 44.4513V41.5488C9.62553 41.0829 9.66125 40.5992 9.7327 40.0975L1.69518 33.97C0.83785 33.325 0.302016 32.465 0.087682 31.39C-0.126652 30.315 0.0519597 29.3117 0.623516 28.38L8.55386 14.5125C9.12542 13.5808 9.91131 12.9538 10.9115 12.6313C11.9118 12.3088 12.912 12.3625 13.9122 12.7925L23.2357 16.6625C24.0216 16.0892 24.8432 15.5517 25.7006 15.05C26.5579 14.5483 27.4152 14.1183 28.2726 13.76L29.5586 3.7625C29.7015 2.6875 30.1658 1.79167 30.9517 1.075C31.7376 0.358333 32.6664 0 33.7381 0H49.8131C50.8848 0 51.8135 0.358333 52.5994 1.075C53.3853 1.79167 53.8497 2.6875 53.9926 3.7625L55.2786 13.76C56.2074 14.1183 57.0826 14.5483 57.9042 15.05C58.7258 15.5517 59.5296 16.0892 60.3155 16.6625L69.639 12.7925C70.6392 12.3625 71.6394 12.3088 72.6396 12.6313C73.6399 12.9538 74.4258 13.5808 74.9973 14.5125L82.9277 28.38C83.4992 29.3117 83.6778 30.315 83.4635 31.39C83.2492 32.465 82.7133 33.325 81.856 33.97L73.8185 40.0975C73.8899 40.4558 73.9256 40.9038 73.9256 41.4412V43.1075C73.9256 44.3258 73.497 45.3292 72.6396 46.1175C71.7823 46.9058 70.7464 47.3 69.5318 47.3H56.3503C56.5646 46.5833 56.7254 45.8846 56.8325 45.2038C56.9397 44.5229 56.9933 43.7883 56.9933 43C56.9933 38.8433 55.5287 35.2958 52.5994 32.3575C49.6702 29.4192 46.1337 27.95 41.9899 27.95C37.7747 27.95 34.2203 29.4192 31.3268 32.3575C28.4333 35.2958 26.9866 38.8433 26.9866 43C26.9866 46.44 27.9689 49.45 29.9337 52.03C31.8984 54.61 34.4168 56.4017 37.4889 57.405ZM70.7106 57.835L85.9283 66.9725C86.6428 67.4025 87 68.0117 87 68.8C87 69.5883 86.6428 70.1975 85.9283 70.6275L70.7106 79.765C69.9962 80.195 69.2817 80.2129 68.5673 79.8187C67.8529 79.4246 67.4956 78.7975 67.4956 77.9375V59.6625C67.4956 58.8025 67.8529 58.1754 68.5673 57.7812C69.2817 57.3871 69.9962 57.405 70.7106 57.835ZM49.2773 57.835L64.495 66.9725C65.2094 67.4025 65.5666 68.0117 65.5666 68.8C65.5666 69.5883 65.2094 70.1975 64.495 70.6275L49.2773 79.765C48.5628 80.195 47.8484 80.2129 47.1339 79.8187C46.4195 79.4246 46.0623 78.7975 46.0623 77.9375V59.6625C46.0623 58.8025 46.4195 58.1754 47.1339 57.7812C47.8484 57.3871 48.5628 57.405 49.2773 57.835Z" fill="white"/>
</svg>
