<svg width="76" height="80" viewBox="0 0 76 80" fill="none" xmlns="http://www.w3.org/2000/svg">
<path d="M31.0881 46.5331L31.4841 49.7013C31.5501 50.2294 31.7646 50.6584 32.1276 50.9884C32.4907 51.3184 32.9362 51.4834 33.4642 51.4834H37.8205C38.3486 51.4834 38.7941 51.3184 39.1571 50.9884C39.5201 50.6584 39.7347 50.2294 39.8007 49.7013L40.1967 46.5331C40.7247 46.3351 41.2033 46.1041 41.6323 45.8401C42.0613 45.576 42.4408 45.279 42.7709 44.949L45.7411 46.2361C46.2031 46.4341 46.6651 46.4671 47.1271 46.3351C47.5892 46.2031 47.9522 45.9061 48.2162 45.444L50.3944 41.6818C50.6584 41.2197 50.7409 40.7577 50.6419 40.2957C50.5429 39.8337 50.2954 39.4376 49.8993 39.1076L47.3252 37.2265C47.4572 36.6984 47.5232 36.1704 47.5232 35.6424C47.5232 35.1143 47.4572 34.5863 47.3252 34.0583L49.8993 32.1771C50.2954 31.8471 50.5429 31.4511 50.6419 30.9891C50.7409 30.527 50.6584 30.065 50.3944 29.603L48.2162 25.8407C47.9522 25.3787 47.5892 25.0817 47.1271 24.9497C46.6651 24.8177 46.2031 24.8507 45.7411 25.0487L42.7709 26.3358C42.4408 26.0057 42.0613 25.7087 41.6323 25.4447C41.2033 25.1807 40.7247 24.9497 40.1967 24.7517L39.8007 21.5834C39.7347 21.0554 39.5201 20.6264 39.1571 20.2964C38.7941 19.9663 38.3486 19.8013 37.8205 19.8013H33.4642C32.9362 19.8013 32.4907 19.9663 32.1276 20.2964C31.7646 20.6264 31.5501 21.0554 31.4841 21.5834L31.0881 24.7517C30.56 24.9497 30.0815 25.1807 29.6525 25.4447C29.2234 25.7087 28.8439 26.0057 28.5139 26.3358L25.5437 25.0487C25.0817 24.8507 24.6196 24.8177 24.1576 24.9497C23.6956 25.0817 23.3326 25.3787 23.0685 25.8407L20.8904 29.603C20.6264 30.065 20.5439 30.527 20.6429 30.9891C20.7419 31.4511 20.9894 31.8471 21.3854 32.1771L23.9596 34.0583C23.8276 34.5863 23.7616 35.1143 23.7616 35.6424C23.7616 36.1704 23.8276 36.6984 23.9596 37.2265L21.3854 39.1076C20.9894 39.4376 20.7419 39.8337 20.6429 40.2957C20.5439 40.7577 20.6264 41.2197 20.8904 41.6818L23.0685 45.444C23.3326 45.9061 23.6956 46.2031 24.1576 46.3351C24.6196 46.4671 25.0817 46.4341 25.5437 46.2361L28.5139 44.949C28.8439 45.279 29.2234 45.576 29.6525 45.8401C30.0815 46.1041 30.56 46.3351 31.0881 46.5331ZM35.6424 41.5828C33.9923 41.5828 32.5897 41.0052 31.4346 39.8502C30.2795 38.6951 29.702 37.2925 29.702 35.6424C29.702 33.9923 30.2795 32.5897 31.4346 31.4346C32.5897 30.2795 33.9923 29.702 35.6424 29.702C37.2925 29.702 38.6951 30.2795 39.8502 31.4346C41.0052 32.5897 41.5828 33.9923 41.5828 35.6424C41.5828 37.2925 41.0052 38.6951 39.8502 39.8502C38.6951 41.0052 37.2925 41.5828 35.6424 41.5828ZM15.8411 79.2053C14.719 79.2053 13.7784 78.8258 13.0194 78.0667C12.2603 77.3077 11.8808 76.3671 11.8808 75.245V62.1762C8.11854 58.7439 5.19785 54.7342 3.11871 50.1468C1.03957 45.5595 0 40.7247 0 35.6424C0 25.7417 3.46523 17.3262 10.3957 10.3957C17.3262 3.46523 25.7417 0 35.6424 0C43.8929 0 51.2029 2.42566 57.5723 7.27699C63.9418 12.1283 68.0835 18.4482 69.9977 26.2368L75.146 46.5331C75.476 47.7872 75.245 48.9258 74.453 49.9488C73.6609 50.9719 72.6048 51.4834 71.2848 51.4834H63.3642V63.3642C63.3642 65.5424 62.5887 67.407 61.0376 68.9581C59.4865 70.5092 57.6218 71.2848 55.4437 71.2848H47.5232V75.245C47.5232 76.3671 47.1436 77.3077 46.3846 78.0667C45.6255 78.8258 44.685 79.2053 43.5629 79.2053H15.8411Z" fill="white"/>
</svg>
